<?xml version="1.0" encoding="utf-8"?>
<svg version="1.0" xmlns="http://www.w3.org/2000/svg" xmlns:xlink="http://www.w3.org/1999/xlink" x="0px" y="0px" width="663.1px"
	 height="193.9px" viewBox="0 0 663.1 193.9" enable-background="new 0 0 663.1 193.9" xml:space="preserve">
<g stroke="#555" stroke-linecap="round" stroke-linejoin="round" stroke-miterlimit="10">
	<path fill="none" d="M384.6,125.5
		c5.2-13.8,2.7-28-7.2-34.8c-12.3-8.4-31.2-2.1-42.4,14.1s-10.2,36.2,2.1,44.6c9,6.2,21.7,4.4,32.1-3.4"/>
	<path fill="none" d="M319,75.9
		c-4.1,2.9-7.9,6.7-11,11.3c-2.3,3.3-4,6.8-5.3,10.3"/>
	<path fill="none" d="M369.2,146
		c3.8-2.8,7.3-6.4,10.2-10.7c2.2-3.2,3.9-6.5,5.1-9.8"/>
	<path fill="none" d="M325.5,110
		c-4.5,10.7-4.4,21.8,0.2,29.7"/>
	<path fill="none" d="M366.3,83.4
		c-8.8-2.2-19.4,1.2-28.1,8.8"/>
	<path fill="none" d="M317.8,108.2
		c-5.6,13.5-5.4,27.7,0.3,37.8"/>
	<path fill="none" d="M369.9,74.7
		c-11.3-2.7-24.6,1.4-35.5,10.7"/>
	
	<ellipse transform="matrix(0.5659 -0.8244 0.8244 0.5659 54.6896 362.1889)" fill="none" cx="371.3" cy="129.2" rx="7.4" ry="5.6"/>
	<path fill="none" d="M361.4,113.9
		c-2.5-1.7-6.5-0.4-8.8,2.9c-2.3,3.4-2.1,7.5,0.4,9.2"/>
	<line fill="none" x1="361.4" y1="113.9" x2="375.5" y2="123.1"/>
	<line fill="none" x1="353" y1="126.1" x2="367.1" y2="135.2"/>
	<path fill="none" d="M335.8,114.3
		c0.9-2.2,2.1-4.4,3.6-6.5c2.1-3.1,7.2-7.8,7.2-7.8l6.1,11.4c0,0-2.2,2-3.1,3.4c-0.6,0.9-1.6,2.9-1.6,2.9L335.8,114.3z"/>
	<path fill="none" d="M361.8,107.7
		l5.8-13.7c0,0,3.9,1.3,5.7,2.5c2.1,1.4,3.8,3.3,5,5.4l0,0c0,0-12.3,10.1-12.3,10.1c-0.5-0.8-1.2-1.5-2-2c-0.8-0.6-1.8-0.9-2.7-1.1
		L361.8,107.7z"/>
	<path fill="none" d="M346.8,146l5.5-15
		l-0.4-0.1c-0.6-0.2-1.1-0.5-1.7-0.8c-0.9-0.6-1.6-1.4-2.1-2.3L336,138l0,0c1.3,2.2,3,4,5.1,5.5C342.8,144.7,344.8,145.6,346.8,146
		L346.8,146z"/>
	<path fill="none" d="M318.6,74.7
		c10.3-9,22.9-13,33.5-11.5l17.7,11.5"/>
	<path fill="none" d="M318.1,146l-17.3-11
		c-4.8-10.1-4.3-23.8,1.5-37.1"/>
	<polyline fill="none" points="
		335.1,159.2 338.7,150.4 323.5,141.4 	"/>
	<path fill="none" d="M335.1,159.2
		c11.2,2.9,24.5-0.9,35.6-10l0,0l-1.5-3.2"/>
	<path fill="none" d="M369.9,74.7
		l-3.5,8.6l14.1,9.9l6.7-5.7l0,0c6.1,10.3,6.3,24.7,0.5,38.6l0,0l-3.1-0.6"/>
	<line fill="none" x1="318.1" y1="146" x2="325.6" y2="139.7"/>
	<path fill="none" d="M387.8,126.6"/>
	<polyline fill="none" points="
		335.1,159.2 318.6,148.8 320.9,143.6 	"/>
	<polyline fill="none" points="
		387.2,87.5 370.3,76.9 368.1,79 	"/>
	<polygon fill="none" points="338.2,92.2 
		334.3,85.4 318.6,74.7 322.2,81.6 	"/>
	<polyline fill="none" points="
		302.3,97.9 309.6,100 325.5,110 317.8,108.2 302.3,97.9 	"/>
	<path stroke-width="2" stroke-miterlimit="10" d="M127,89.3h2.1l7.5,18.5l7.5-18.5h2.1l2.6,23.4h-1.4l-2.4-21.8
		l-7.4,18.2h-1.9l-7.3-18.2l-2.4,21.8h-1.4L127,89.3z"/>
	<path stroke-width="2" stroke-miterlimit="10" d="M174,88.9c6.2,0,9.8,4.5,9.8,12.1c0,7.6-3.6,12.1-9.8,12.1
		c-6.3,0-9.8-4.5-9.8-12.1C164.3,93.3,167.8,88.9,174,88.9z M182.4,101c0-6.1-2.4-10.7-8.3-10.7c-5.9,0-8.3,4.6-8.3,10.7
		c0,6.1,2.4,10.7,8.3,10.7C180,111.7,182.4,107.1,182.4,101z"/>
	<path stroke-width="2" stroke-miterlimit="10" d="M204.4,90.6h-6.9v-1.4h15.3l-0.2,1.4h-6.8v22h-1.4V90.6z"/>
	<path stroke-width="2" stroke-miterlimit="10" d="M236.2,88.9c6.2,0,9.8,4.5,9.8,12.1c0,7.6-3.6,12.1-9.8,12.1
		c-6.3,0-9.8-4.5-9.8-12.1C226.4,93.3,230,88.9,236.2,88.9z M244.5,101c0-6.1-2.4-10.7-8.3-10.7c-5.9,0-8.3,4.6-8.3,10.7
		c0,6.1,2.4,10.7,8.3,10.7C242.2,111.7,244.5,107.1,244.5,101z"/>
	<path stroke-width="2" stroke-miterlimit="10" d="M262.1,89.3h6.9c5,0,7.2,2.5,7.2,6.2c0,4-3,6.3-5.9,6.3
		c0.8,0.5,1.4,1.4,1.9,2.2l4.9,8.6h-1.6l-4.6-8.1c-1-1.7-1.8-2.6-3.8-2.6h-3.6v10.7h-1.4V89.3z M269,100.7c3.7,0,5.7-1.9,5.7-5.1
		c0-3.2-1.6-4.9-5.8-4.9h-5.4v10.1H269z"/>
	<path stroke-width="2" stroke-miterlimit="10" d="M414.8,89.3h6.9c5,0,7.2,2.5,7.2,6.2c0,4-3,6.3-5.9,6.3
		c0.8,0.5,1.4,1.4,1.9,2.2l4.9,8.6h-1.6l-4.6-8.1c-1-1.7-1.8-2.6-3.8-2.6h-3.6v10.7h-1.4V89.3z M421.6,100.7c3.7,0,5.7-1.9,5.7-5.1
		c0-3.2-1.6-4.9-5.8-4.9h-5.4v10.1H421.6z"/>
	<path stroke-width="2" stroke-miterlimit="10" d="M445,89.3h12.9v1.4h-11.4v9.5h10v1.4h-10v9.8h12l-0.3,1.4H445
		V89.3z"/>
	<path stroke-width="2" stroke-miterlimit="10" d="M473.3,109.6c1.1,0.9,3.7,2.1,6.2,2.1c3.1,0,5.6-1.7,5.6-5
		c0-6.4-11.5-4-11.5-11.9c0-3.6,2.8-5.9,6.9-5.9c2.3,0,4.2,0.8,5.7,1.7l-0.6,1.2c-1.6-0.9-3.2-1.4-5.1-1.4c-3.5,0-5.4,1.7-5.4,4.6
		c0,6.5,11.5,4.4,11.5,11.7c0,4-3.2,6.5-7.1,6.5c-2.8,0-5.2-1.1-6.8-2.2L473.3,109.6z"/>
	<path stroke-width="2" stroke-miterlimit="10" d="M502.2,89.3h6.9c5,0,7.3,2.7,7.3,6.6s-2.3,6.7-7.3,6.7h-5.5v10
		h-1.4V89.3z M509,101.3c4.1,0,5.9-2,5.9-5.4c0-3.5-1.8-5.3-5.9-5.3h-5.4v10.6H509z"/>
	<path stroke-width="2" stroke-miterlimit="10" d="M540.9,88.9c6.2,0,9.8,4.5,9.8,12.1c0,7.6-3.6,12.1-9.8,12.1
		c-6.3,0-9.8-4.5-9.8-12.1C531.2,93.3,534.7,88.9,540.9,88.9z M549.3,101c0-6.1-2.4-10.7-8.3-10.7s-8.3,4.6-8.3,10.7
		c0,6.1,2.4,10.7,8.3,10.7S549.3,107.1,549.3,101z"/>
	<path stroke-width="2" stroke-miterlimit="10" d="M566.9,89.3h1.8l13,21.4V89.3h1.4v23.4h-1.8l-13-21.3v21.3
		h-1.4V89.3z"/>
	<path stroke-width="2" stroke-miterlimit="10" d="M599.1,109.6c1.1,0.9,3.7,2.1,6.2,2.1c3.1,0,5.6-1.7,5.6-5
		c0-6.4-11.5-4-11.5-11.9c0-3.6,2.8-5.9,6.9-5.9c2.3,0,4.2,0.8,5.7,1.7l-0.6,1.2c-1.6-0.9-3.2-1.4-5.1-1.4c-3.5,0-5.4,1.7-5.4,4.6
		c0,6.5,11.5,4.4,11.5,11.7c0,4-3.2,6.5-7.1,6.5c-2.8,0-5.2-1.1-6.8-2.2L599.1,109.6z"/>
	<path stroke-width="2" stroke-miterlimit="10" d="M628,89.3h12.9v1.4h-11.4v9.5h10v1.4h-10v9.8h12l-0.3,1.4H628
		V89.3z"/>
	<polyline fill="none" stroke-miterlimit="10" points="22.5,54.3 67.4,54.3 67.4,97.4 103.4,97.4 103.4,78 
		153.5,78 153.5,41.6 211,41.6 211,28.7 258.9,28.7 258.9,55 295,55 295,73.9 	"/>
	<path fill="none" stroke-miterlimit="10" d="M373.4,142.7c0,0,29.8,45.4,53,17.2s35.8-49.3,57.5-25
		c13.3,14.9,22.1,23.5,35.4,17.2c10.7-5.1,19.9-10.2,25.4-2.3"/>
</g>
</svg>
